# xmcd
# Track frame offsets:
# 150
# 13578
# 26624
# 41037
# 54788
# 69565
# 80611
# 97313
# 110283
# 124066
# 139068
# 151843
# 165351
# 178340
#
# Disc length: 2582 seconds
# Revision: 0
# Processed by: cddbd v1.5.2PL0 Copyright (c) Steve Scherf et al.
# Submitted via: VisiTrax 2.10.3.257 - For more info visit www.synapsa.com
#
DISCID=b40a140e
DTITLE=Ben Steneker - Het Beste Van Ben Steneker
DYEAR=2006
DGENRE=
TTITLE0=Donna Carmela
TTITLE1=Home Sweet Home
TTITLE2=Someone Is Looking For Someone Like You (met Carmen Steneker)
TTITLE3=I'll Be Faithful To You
TTITLE4=Dusty Road
TTITLE5=Nueva Rosita
TTITLE6=Part Of Me
TTITLE7=No More, No More, No More (met Sandra Vanreys)
TTITLE8=You Can't Take It With You
TTITLE9=Run Away (met Carmen Steneker)
TTITLE10=Dog Gone Babys Back
TTITLE11=Rose Of My Heart (met Carmen Steneker)
TTITLE12=Land Of Enchantment
TTITLE13=Why Me
EXTD=
EXTT0=
EXTT1=
EXTT2=
EXTT3=
EXTT4=
EXTT5=
EXTT6=
EXTT7=
EXTT8=
EXTT9=
EXTT10=
EXTT11=
EXTT12=
EXTT13=
PLAYORDER=
